<svg version="1.1" id="Layer_1" xmlns="http://www.w3.org/2000/svg" xmlns:xlink="http://www.w3.org/1999/xlink" x="0px" y="0px"
	 width="100%" viewBox="0 0 500 360" enable-background="new 0 0 500 360" xml:space="preserve">
<path fill="#FEFFFF" opacity="1.000000" stroke="none" 
	d="
M315.000000,361.000000 
	C211.333344,361.000000 108.166672,360.978210 5.000145,361.095490 
	C1.576153,361.099365 0.901428,360.423950 0.904768,356.999939 
	C1.019206,239.666733 1.019195,122.333382 0.904784,5.000173 
	C0.901446,1.576407 1.576111,0.903035 4.999981,0.905299 
	C168.999878,1.013772 332.999878,1.013765 496.999786,0.905330 
	C500.423157,0.903067 501.098572,1.575709 501.095215,4.999952 
	C500.980774,122.333160 500.980774,239.666519 501.095154,356.999725 
	C501.098511,360.423279 500.425201,361.104492 496.999969,361.096924 
	C436.500214,360.963104 376.000061,361.000000 315.000000,361.000000 
z"/>
<path fill="#48AFCF" opacity="1.000000" stroke="none" 
	d="
M127.810669,59.771263 
	C130.472717,60.062916 133.176758,63.650993 134.671371,60.986435 
	C136.082855,58.470119 132.212891,57.232311 130.283249,55.914276 
	C125.490547,52.640625 120.494598,49.699036 114.672066,48.554470 
	C115.105080,46.803856 116.364212,47.346447 117.204613,47.100029 
	C118.740547,46.649666 120.357849,45.976147 120.048981,44.212841 
	C119.674149,42.073002 117.699371,43.123257 116.326317,42.983299 
	C106.586594,41.990494 96.807190,41.257565 87.128403,39.840858 
	C80.446869,38.862869 79.843643,37.621189 79.849289,31.001493 
	C79.852554,27.169310 79.967697,23.334976 79.872925,19.505560 
	C79.769646,15.332134 81.721489,13.239609 85.849167,13.303631 
	C109.493050,13.670364 133.161438,12.330674 156.782166,14.042476 
	C182.208206,15.885112 201.543274,30.680132 207.056686,53.408211 
	C211.766922,72.825310 209.133636,91.104256 195.519379,106.854286 
	C192.891785,109.894104 191.040253,110.077980 187.889603,107.393234 
	C178.059219,99.016518 169.118729,89.888863 162.333389,78.852623 
	C159.724899,74.609970 156.315598,71.935120 151.467361,70.796562 
	C148.401031,70.076469 145.455139,68.849930 142.444122,67.885201 
	C140.740692,67.339424 138.527176,65.809021 137.345200,67.302681 
	C136.097794,68.879051 136.870468,71.408379 137.917297,73.268562 
	C138.607529,74.495064 140.080963,74.935387 137.589294,76.268745 
	C135.698654,77.280479 137.938507,78.855797 139.057892,79.476357 
	C142.254501,81.248497 145.609879,82.731926 148.871887,84.389732 
	C150.044479,84.985649 151.609375,85.771545 150.737259,87.329323 
	C149.918610,88.791595 148.690704,87.275558 147.683044,87.015808 
	C146.901550,86.814354 146.215302,86.256790 145.474335,85.882004 
	C143.970886,85.121552 142.228638,84.172974 140.940872,85.761215 
	C139.778839,87.194374 141.220993,88.507919 142.030090,89.738388 
	C144.316360,93.215378 146.440521,96.809517 148.891876,100.165123 
	C153.410492,106.350563 158.680115,111.293381 166.880585,112.475166 
	C170.725754,113.029305 176.229767,114.901421 176.428070,118.476532 
	C176.612366,121.799637 170.727646,121.853607 167.417725,122.838783 
	C154.443085,126.700577 141.040802,126.147209 127.736122,125.814987 
	C123.076126,125.698616 121.851494,127.084328 121.990181,131.630539 
	C122.320282,142.450729 122.135445,153.287979 122.081139,164.117950 
	C122.054192,169.492554 120.619026,170.926361 115.252342,170.957886 
	C105.588768,171.014633 95.924255,170.924805 86.260880,170.996368 
	C82.264458,171.025986 79.891640,169.594452 79.892616,165.241089 
	C79.900475,130.251297 79.877876,95.261497 79.883064,60.271706 
	C79.883125,59.835674 80.125259,59.399677 80.174286,59.234150 
	C92.598099,63.695854 104.341331,69.491463 116.674820,74.828644 
	C117.159317,75.109962 117.313065,75.254929 117.742958,75.244301 
	C118.624481,74.900223 119.229851,74.711723 120.033890,74.270691 
	C120.402969,73.704300 120.557693,73.382904 120.525787,72.848045 
	C122.152924,70.506958 123.573929,72.743683 125.124016,73.107384 
	C126.655823,73.466797 128.492981,75.148758 129.605301,73.464241 
	C130.782654,71.681282 128.331650,70.802834 127.210861,69.277191 
	C126.841370,68.437057 126.998199,67.992630 127.862572,67.718704 
	C129.318832,68.193993 130.371979,68.671806 131.467941,69.011337 
	C132.252579,69.254410 133.177704,69.380898 133.755585,68.629234 
	C134.487152,67.677650 134.087387,66.655731 133.319992,66.005280 
	C131.440414,64.412125 129.446854,62.953434 127.261879,61.204655 
	C126.879677,60.448673 127.034676,60.027988 127.810669,59.771263 
z"/>
<path fill="#49B0CF" opacity="1.000000" stroke="none" 
	d="
M311.713867,243.286133 
	C303.950592,235.488892 296.437347,227.941696 288.863251,220.333389 
	C287.318634,221.546951 287.520508,223.160172 286.998077,224.441055 
	C284.777649,229.884979 279.668732,232.830505 273.769867,231.998367 
	C268.428772,231.244904 264.062866,226.740448 263.955505,221.029144 
	C263.758270,210.535217 263.759277,200.028122 264.063690,189.537720 
	C264.249451,183.136597 269.166656,178.655746 276.016876,178.483887 
	C285.343933,178.249878 294.682770,178.327179 304.013763,178.461945 
	C311.122772,178.564621 316.207764,182.603790 317.078735,188.463318 
	C318.068420,195.121353 315.022919,199.700027 307.828033,202.399094 
	C307.372711,202.569901 306.959564,202.853149 304.916260,203.943497 
	C309.272186,207.787094 313.321716,211.114960 317.086609,214.738556 
	C323.089417,220.516129 328.894775,226.498550 334.802521,232.375381 
	C336.070129,233.636368 337.228851,235.329163 339.283325,233.265396 
	C349.140137,223.364212 359.041016,213.506851 369.285492,203.275085 
	C362.715057,201.183746 357.857697,198.075897 357.813995,190.783066 
	C357.778229,184.819534 361.341431,179.705215 367.225800,179.032043 
	C378.491425,177.743286 389.863281,177.983139 401.145477,178.835388 
	C407.237518,179.295609 410.963928,184.356735 411.039795,190.709671 
	C411.153259,200.208054 411.153351,209.708450 411.122375,219.207718 
	C411.100006,226.064667 407.365906,230.960999 401.567444,231.951569 
	C395.009033,233.071991 389.845734,229.710907 387.562286,222.835251 
	C387.304260,222.058334 387.044373,221.282043 386.580994,219.892792 
	C377.018005,229.478760 368.105347,239.180054 358.342072,247.932541 
	C351.725555,253.864059 349.114807,260.167542 349.463440,269.115387 
	C350.176605,287.420227 349.720398,305.772644 349.648132,324.105103 
	C349.617401,331.904175 345.208160,337.181702 338.547821,337.764404 
	C332.893066,338.259125 327.491028,334.630371 326.080627,329.096375 
	C325.513062,326.869415 325.350433,324.488800 325.344055,322.177185 
	C325.288879,302.178009 325.215668,282.177795 325.394409,262.180084 
	C325.428619,258.354858 324.415863,255.548920 321.556244,253.028473 
	C318.187164,250.059052 315.146729,246.716797 311.713867,243.286133 
z"/>
<path fill="#50B1CF" opacity="1.000000" stroke="none" 
	d="
M195.478256,133.937347 
	C201.217834,132.485703 206.878983,132.714081 212.487335,133.111938 
	C216.363678,133.386948 219.542725,135.548798 220.783020,139.376465 
	C221.961578,143.013596 220.912064,146.382660 217.696014,148.664703 
	C215.647461,150.118317 215.799026,151.495605 217.189468,153.185043 
	C219.138870,155.553665 219.586746,159.095932 223.044739,160.325470 
	C224.178940,160.728745 224.254608,161.818634 223.038589,162.536270 
	C220.601089,163.974731 215.025070,162.322464 213.573639,159.704849 
	C212.443481,157.666626 211.365768,155.598068 210.313995,153.518082 
	C209.602631,152.111282 208.834641,150.799576 206.949921,151.265701 
	C205.133163,151.715042 205.435287,153.309219 205.530533,154.545837 
	C205.692383,156.647461 204.386978,159.462936 207.937988,160.180481 
	C208.617630,160.317810 209.179214,160.970993 208.874252,161.638397 
	C208.655869,162.116318 207.915298,162.641006 207.397659,162.651566 
	C203.347504,162.734055 199.294907,162.697235 194.989075,162.162903 
	C198.701645,159.669830 198.538391,156.295624 198.412277,152.831924 
	C198.272980,149.005859 198.157196,145.153595 198.450989,141.345123 
	C198.687164,138.283661 197.822403,136.019699 195.478256,133.937347 
z"/>
<path fill="#50B1CF" opacity="1.000000" stroke="none" 
	d="
M182.642395,288.525757 
	C177.981323,288.246124 173.681274,289.151611 169.234985,287.884491 
	C174.162048,282.937134 174.579803,264.387695 169.503860,259.194427 
	C176.754379,258.251770 183.396530,257.264557 189.913803,259.651886 
	C195.545334,261.714783 196.642563,266.520050 192.773193,271.104431 
	C191.878784,272.164093 190.514664,272.695343 192.591568,273.876770 
	C195.654984,275.619324 197.182068,278.292297 196.277084,281.799591 
	C195.278381,285.670166 192.184860,287.275085 188.549927,287.943604 
	C186.757126,288.273285 184.915756,288.339020 182.642395,288.525757 
z"/>
<path fill="#50B1CF" opacity="1.000000" stroke="none" 
	d="
M265.441101,258.372681 
	C275.043671,260.308441 280.157196,266.351044 279.520050,274.510864 
	C278.856384,283.009857 273.245697,288.065704 263.735901,288.473907 
	C259.193390,288.668915 254.635559,288.507477 249.279251,288.507477 
	C254.486389,282.849396 254.735199,264.506012 250.277649,259.558655 
	C255.169693,257.663544 260.148865,258.619293 265.441101,258.372681 
z"/>
<path fill="#50B1CF" opacity="1.000000" stroke="none" 
	d="
M312.352539,286.603516 
	C304.948578,289.476990 297.727905,288.485962 290.056732,288.203735 
	C295.219513,282.264038 295.422791,264.094818 290.021088,259.151093 
	C297.560059,258.354095 304.347198,257.204468 311.059235,259.719360 
	C316.433380,261.732971 319.101013,266.155792 319.756897,271.581879 
	C320.515808,277.860321 318.366669,283.051514 312.352539,286.603516 
z"/>
<path fill="#50B1CF" opacity="1.000000" stroke="none" 
	d="
M320.765869,155.393402 
	C315.821320,163.382889 308.044403,165.700348 300.597504,161.712509 
	C293.707092,158.022659 291.102203,148.267349 294.878143,140.293549 
	C298.138916,133.407578 305.656067,130.426437 312.880524,133.154236 
	C320.715942,136.112732 324.056305,145.191406 320.765869,155.393402 
z"/>
<path fill="#58B4D1" opacity="1.000000" stroke="none" 
	d="
M403.782104,158.396851 
	C406.666382,158.350006 408.929047,158.193054 409.485962,155.075180 
	C409.718323,153.774323 410.794891,153.249725 412.152435,153.424881 
	C414.048584,153.669510 413.850403,155.081024 413.923370,156.419998 
	C414.230988,162.062973 413.596039,162.777039 408.043976,162.787766 
	C402.134766,162.799194 396.225464,162.790344 389.266449,162.790344 
	C395.906097,156.203308 392.419922,149.002182 393.121033,142.442200 
	C393.383575,139.985550 394.510223,136.891724 390.815277,135.121780 
	C389.278656,134.385696 390.625732,133.102814 391.970337,133.087845 
	C398.455750,133.015640 404.942352,133.050201 411.428467,133.033371 
	C413.581757,133.027786 413.951752,134.507141 413.652222,136.071609 
	C413.275665,138.038467 414.151337,140.722916 411.475281,141.629135 
	C409.609375,142.261017 408.936798,140.775986 408.467773,139.194321 
	C407.402863,135.603546 404.155945,136.681961 402.213806,137.192520 
	C398.865784,138.072678 400.752899,141.373734 400.545807,143.597336 
	C400.275116,146.503113 402.638641,145.951218 404.395935,145.907089 
	C405.554565,145.878036 406.707947,145.675781 407.866028,145.579010 
	C409.016663,145.482834 409.839691,145.876663 409.866791,147.169205 
	C409.890961,148.320618 410.050690,149.669205 408.421661,149.854050 
	C407.108307,150.003082 405.767700,149.915009 404.439117,149.925583 
	C402.651367,149.939804 400.340240,149.471436 400.556030,152.297180 
	C400.728363,154.553406 398.798340,158.030777 403.782104,158.396851 
z"/>
<path fill="#55B3D0" opacity="1.000000" stroke="none" 
	d="
M143.998993,136.675461 
	C142.927338,135.636841 141.167160,135.759003 141.366867,134.225525 
	C141.577652,132.606857 143.146545,133.073288 144.212082,133.054306 
	C147.629272,132.993408 151.048233,133.031662 154.924881,133.031662 
	C149.293015,140.396530 151.579910,147.976837 152.373871,155.214172 
	C152.704391,158.227219 155.842072,159.308624 159.020920,159.204727 
	C162.337891,159.096313 163.618774,157.152893 164.237335,154.244614 
	C165.359207,148.969818 164.663925,143.643692 164.824951,138.343170 
	C164.849060,137.549225 164.863922,136.707626 163.995102,136.161331 
	C163.011475,135.542877 160.734604,135.945068 161.385651,134.005844 
	C161.969116,132.267929 163.984406,133.138229 165.366425,133.066925 
	C167.775787,132.942627 170.196182,133.032318 172.956116,133.499374 
	C168.875259,136.116562 169.851578,139.893097 169.760590,143.376266 
	C169.673950,146.692825 169.821228,150.051651 169.339432,153.314163 
	C168.347748,160.029297 164.389801,163.429199 157.959320,163.588821 
	C151.725067,163.743576 146.546295,159.888733 145.071457,153.931442 
	C143.693390,148.364960 144.814407,142.662430 143.998993,136.675461 
z"/>
<path fill="#50B1CF" opacity="1.000000" stroke="none" 
	d="
M225.740204,284.970062 
	C228.321808,284.366028 229.618057,282.905914 229.980591,280.778564 
	C230.936844,275.167114 230.350601,269.497742 230.488007,263.854034 
	C230.545792,261.480255 227.552231,261.890930 227.123718,259.547852 
	C230.943405,258.334839 234.732071,258.971405 239.603149,259.230530 
	C235.551422,261.874908 235.438950,265.146179 235.589020,268.650391 
	C235.730698,271.958313 235.681793,275.318909 235.258881,278.597290 
	C234.367371,285.508148 230.945740,288.769989 224.781357,289.068207 
	C217.365112,289.426971 212.695648,286.236969 210.906296,279.617493 
	C209.799438,275.522919 210.308350,271.344147 210.325363,267.207092 
	C210.337280,264.309723 210.336288,261.621307 207.054657,259.739441 
	C211.614822,258.750366 215.960754,258.746796 220.625565,259.261810 
	C217.020325,263.368042 215.801727,277.515503 218.486374,281.862732 
	C220.044022,284.385101 222.454742,285.265076 225.740204,284.970062 
z"/>
<path fill="#50B1CF" opacity="1.000000" stroke="none" 
	d="
M355.360901,132.197876 
	C357.594849,132.347107 359.436066,132.383667 361.218536,132.725922 
	C365.547546,133.557144 366.936981,136.756012 364.887024,140.725220 
	C364.433624,141.603134 363.838013,141.900421 362.951447,141.944107 
	C361.464203,142.017365 360.862793,141.039581 360.610809,139.840729 
	C360.094879,137.386398 358.664612,136.107086 356.154846,135.962769 
	C354.423706,135.863251 352.731171,135.821732 352.038849,137.854309 
	C351.432129,139.635468 351.857910,141.264709 353.474457,142.221176 
	C356.045410,143.742325 358.770996,144.999466 361.377838,146.463303 
	C364.978516,148.485184 367.485870,151.375031 366.677216,155.741898 
	C365.858795,160.161621 362.717560,162.376083 358.383911,163.270691 
	C354.596344,164.052536 351.092590,163.120438 347.647308,161.902695 
	C345.010132,160.970612 343.825684,154.798981 345.954681,152.977448 
	C348.123688,151.121643 349.245697,152.779495 349.846771,154.733704 
	C350.560303,157.053589 351.370972,159.013596 354.212860,159.523468 
	C356.552063,159.943161 358.631744,160.122543 359.672333,157.567154 
	C360.583496,155.329636 359.408844,153.679138 357.559692,152.541092 
	C355.862244,151.496429 354.069824,150.601288 352.292938,149.691574 
	C348.292206,147.643326 344.455139,145.293030 345.211578,140.004456 
	C345.985321,134.595551 350.279419,133.053391 355.360901,132.197876 
z"/>
<path fill="#55B3D0" opacity="1.000000" stroke="none" 
	d="
M271.011932,146.678467 
	C268.286072,150.947906 264.432068,151.971619 260.055664,152.017746 
	C258.413422,152.035065 256.026550,151.259872 256.111298,154.292053 
	C256.175751,156.598206 255.073120,159.592285 259.044739,159.940155 
	C259.983582,160.022369 261.285461,159.991104 261.248138,161.359344 
	C261.213409,162.630386 260.045074,162.750992 259.028839,162.754532 
	C254.789368,162.769272 250.549789,162.760742 245.991348,162.273956 
	C250.044388,159.414108 249.596069,155.407684 249.024475,151.891022 
	C248.100998,146.209534 252.161926,139.798203 246.465607,134.740005 
	C245.498535,133.881287 246.967178,133.070374 247.997574,133.064804 
	C253.310471,133.036057 258.683258,132.582962 263.921631,133.216553 
	C270.310150,133.989212 273.055267,139.494888 271.011932,146.678467 
z"/>
<path fill="#79BED4" opacity="1.000000" stroke="none" 
	d="
M110.315231,65.123390 
	C113.948875,67.068420 117.785286,68.235626 119.902893,71.860497 
	C115.944893,70.592667 111.418320,70.200218 110.315231,65.123390 
z"/>
<path fill="#79BED4" opacity="1.000000" stroke="none" 
	d="
M128.044281,67.501083 
	C127.929993,68.009285 127.612610,68.243225 127.151337,68.736267 
	C124.107475,67.277733 121.207512,65.560089 117.395058,63.301971 
	C122.417587,62.790718 124.958817,65.434029 128.044281,67.501083 
z"/>
<path fill="#79BED4" opacity="1.000000" stroke="none" 
	d="
M127.965622,59.574966 
	C127.876305,60.060822 127.578445,60.271687 127.152596,60.725616 
	C124.501350,59.534706 121.978096,58.100727 118.563644,56.160282 
	C122.899673,55.889179 125.231606,57.854553 127.965622,59.574966 
z"/>
<path fill="#79BED4" opacity="1.000000" stroke="none" 
	d="
M117.772064,75.005890 
	C117.731720,75.160706 117.444328,75.232704 117.081253,75.134842 
	C117.178726,74.951012 117.351868,74.937035 117.772064,75.005890 
z"/>
<path fill="#79BED4" opacity="1.000000" stroke="none" 
	d="
M120.241623,72.853149 
	C120.435768,72.969170 120.516548,73.296135 120.414932,73.820618 
	C120.139587,73.706482 120.104828,73.388458 120.241623,72.853149 
z"/>
<path fill="#F8FBFC" opacity="1.000000" stroke="none" 
	d="
M337.223053,296.588867 
	C333.593933,299.347961 331.828979,298.507080 331.827789,294.303223 
	C331.825287,285.604279 331.827026,276.905334 331.827026,267.470398 
	C330.049225,271.095184 330.219452,274.213257 330.257874,277.325165 
	C330.270325,278.334106 330.055145,279.454132 328.760223,279.463715 
	C328.256042,279.467468 327.557129,278.905884 327.269745,278.413391 
	C324.843689,274.256195 327.963257,263.016479 332.663971,260.066345 
	C335.236664,259.640503 337.401367,259.820099 339.816040,260.716125 
	C340.298401,260.957031 340.483612,261.066223 340.918396,261.376343 
	C341.448944,261.892151 341.707336,262.224548 342.122681,262.827240 
	C342.424835,263.246338 342.546295,263.413544 342.847900,263.834595 
	C343.138367,264.265625 343.248688,264.442810 343.490540,264.905823 
	C343.675964,265.395050 343.729858,265.598450 343.806458,266.117188 
	C343.788483,266.856323 343.665222,267.253326 343.248535,267.864563 
	C343.098328,276.899078 343.143463,285.687988 343.191559,294.476868 
	C343.209900,297.831543 341.893829,299.189545 338.294006,297.287781 
	C336.817047,290.477844 337.958344,283.893951 337.488861,278.249329 
	C337.433533,283.623596 337.560974,289.895355 337.223053,296.588867 
z"/>
<path fill="#E6F1F4" opacity="1.000000" stroke="none" 
	d="
M341.239349,261.756317 
	C338.498840,261.528442 336.022644,261.060364 333.285034,260.326141 
	C332.889709,259.266022 332.917877,258.397369 332.592621,257.691620 
	C331.465607,255.246429 331.842957,253.100357 333.852203,251.396606 
	C335.376038,250.104401 337.319214,249.807449 338.942963,251.027695 
	C341.021942,252.590042 343.057129,254.393631 341.979187,257.793457 
	C342.119385,259.250977 342.176453,260.425842 341.239349,261.756317 
z"/>
<path fill="#F2F8FA" opacity="1.000000" stroke="none" 
	d="
M340.985657,262.002625 
	C341.115204,260.841339 341.255371,259.686157 341.650024,258.294403 
	C344.576233,259.936920 345.896942,262.881226 347.482269,265.537964 
	C348.441437,267.145325 348.829376,269.409485 345.244080,268.094666 
	C344.508759,267.380249 343.976501,266.937531 343.263611,266.179413 
	C343.037598,265.916809 342.995483,265.496002 342.980591,265.285095 
	C342.778839,264.820831 342.578308,264.578918 342.190735,264.188538 
	C342.017426,264.028717 341.994537,264.005463 341.984985,263.992249 
	C341.568024,263.547852 341.530762,262.973602 341.194763,262.235443 
	C341.007935,262.028259 340.996277,262.008728 340.985657,262.002625 
z"/>
<path fill="#79BED4" opacity="1.000000" stroke="none" 
	d="
M337.263062,297.006470 
	C337.014191,290.713196 337.014191,284.414948 337.014191,278.116730 
	C337.359497,278.112152 337.704773,278.107574 338.050079,278.102997 
	C338.050079,284.089935 338.050079,290.076904 338.029968,296.532043 
	C338.009857,297.000244 337.511963,297.001556 337.263062,297.006470 
z"/>
<path fill="#79BED4" opacity="1.000000" stroke="none" 
	d="
M345.874634,251.080841 
	C343.866028,253.552155 343.497223,249.695572 341.961517,250.430115 
	C342.023987,249.475113 341.891815,248.298248 343.151245,248.095840 
	C345.125000,247.778625 346.338684,248.498978 345.874634,251.080841 
z"/>
<path fill="#E6F1F4" opacity="1.000000" stroke="none" 
	d="
M343.010376,266.282349 
	C343.880188,266.031769 344.627930,266.287109 344.998962,267.496460 
	C344.606262,267.810211 344.147980,267.824768 343.370911,267.974792 
	C343.029083,267.622772 343.006104,267.135345 343.010376,266.282349 
z"/>
<path fill="#F2F8FA" opacity="1.000000" stroke="none" 
	d="
M205.147400,140.263977 
	C204.785782,136.010803 207.943161,136.805862 209.930008,136.367142 
	C212.146988,135.877594 213.396027,137.468033 213.840912,139.353241 
	C214.508621,142.182602 214.628830,145.077637 211.767685,146.964005 
	C210.003296,148.127289 207.725937,148.635330 206.129715,147.322357 
	C204.113434,145.663849 205.474152,142.935013 205.147400,140.263977 
z"/>
<path fill="#F2F8FA" opacity="1.000000" stroke="none" 
	d="
M185.111206,274.655945 
	C188.077835,275.843201 189.352112,277.719879 189.172241,280.554108 
	C189.043243,282.586731 188.028549,284.060791 186.147308,284.636749 
	C184.268158,285.212036 181.693207,285.767853 180.577850,284.180237 
	C178.831223,281.694153 179.525375,278.382294 180.119400,275.597260 
	C180.619965,273.250366 183.039780,274.381073 185.111206,274.655945 
z"/>
<path fill="#F2F8FA" opacity="1.000000" stroke="none" 
	d="
M180.029968,263.507935 
	C183.420425,261.307617 186.402603,261.262726 187.808884,265.230377 
	C188.883987,268.263641 187.261673,270.326721 184.252060,271.266724 
	C181.632538,272.084869 179.547989,272.108002 179.810852,268.399719 
	C179.916382,266.911041 179.869080,265.411530 180.029968,263.507935 
z"/>
<path fill="#F8FBFC" opacity="1.000000" stroke="none" 
	d="
M260.118774,268.240234 
	C260.372375,265.658295 259.109955,262.917358 262.721161,262.279968 
	C265.808868,261.734985 268.139282,262.245178 269.937286,265.174988 
	C273.092346,270.316193 273.056152,278.282501 269.461456,282.043884 
	C267.372498,284.229706 264.758026,285.402130 261.789917,284.368683 
	C258.900391,283.362701 260.299042,280.661163 260.176239,278.702942 
	C259.968048,275.383179 260.118805,272.040863 260.118774,268.240234 
z"/>
<path fill="#F8FBFC" opacity="1.000000" stroke="none" 
	d="
M305.356659,284.604248 
	C301.632141,285.170502 300.570160,283.585938 300.689026,280.403748 
	C300.862488,275.761261 300.715179,271.107361 300.741608,266.458527 
	C300.750793,264.847107 300.348785,262.885254 302.627167,262.444153 
	C304.701355,262.042511 306.879456,261.422546 308.732666,263.239502 
	C314.587036,268.979431 314.454193,282.182220 305.356659,284.604248 
z"/>
<path fill="#F8FBFC" opacity="1.000000" stroke="none" 
	d="
M304.747101,158.350388 
	C300.116089,153.204758 298.990540,145.254135 301.807892,139.495041 
	C304.000244,135.013565 309.635773,134.987686 312.713104,139.445007 
	C315.678558,143.740250 315.778961,152.808594 312.945190,157.146713 
	C310.801208,160.428757 308.004028,159.885895 304.747101,158.350388 
z"/>
<path fill="#F2F8FA" opacity="1.000000" stroke="none" 
	d="
M256.465698,147.408539 
	C256.145233,144.904907 256.282013,142.738205 255.983826,140.633118 
	C255.524475,137.390335 257.402191,136.886398 259.942657,136.413284 
	C262.769135,135.886871 263.916992,137.339981 264.652740,139.563049 
	C266.547943,145.289307 263.265045,148.672379 256.465698,147.408539 
z"/>
<path fill="#E6F1F4" opacity="1.000000" stroke="none" 
	d="
M341.014923,262.322296 
	C341.326263,262.482635 341.644623,262.936981 341.969177,263.685181 
	C341.657593,263.524780 341.339752,263.070557 341.014923,262.322296 
z"/>
<path fill="#E6F1F4" opacity="1.000000" stroke="none" 
	d="
M342.112427,264.253113 
	C342.359131,264.110199 342.621094,264.301147 342.884491,264.837891 
	C342.652374,264.952179 342.399628,264.753296 342.112427,264.253113 
z"/>
</svg>